<?xml version="1.0" encoding="utf-8"?>
<!-- Generator: Adobe Illustrator 28.2.0, SVG Export Plug-In . SVG Version: 6.00 Build 0)  -->
<svg version="1.1" id="Layer_1" xmlns="http://www.w3.org/2000/svg" xmlns:xlink="http://www.w3.org/1999/xlink" x="0px" y="0px"
	 viewBox="0 0 800 800" style="enable-background:new 0 0 800 800;" xml:space="preserve">
<style type="text/css">
	.st0{fill:#FFFFFF;}
</style>
<path class="st0" d="M648.8,82.9H509.7V54.4c0-30-24.4-54.4-54.4-54.4H344.7c-30,0-54.4,24.4-54.4,54.4v28.5H151.2
	c-37.6,0-68.3,30.6-68.3,68.3v41.5c0,7.2,5.8,13,13,13h14.7v498.5c0,17.9,11.6,33.1,27.6,38.5v16.8c0,22.4,18.2,40.6,40.6,40.6
	h442.3c22.4,0,40.6-18.2,40.6-40.6v-16.8c16.1-5.4,27.6-20.6,27.6-38.5V205.6h14.7c7.2,0,13-5.8,13-13v-41.5
	C717.1,113.6,686.4,82.9,648.8,82.9z M316.2,54.4c0-15.7,12.8-28.5,28.5-28.5h110.6c15.7,0,28.5,12.8,28.5,28.5v28.5H316.2V54.4z
	 M136.5,275.6c0-8.1,6.6-14.7,14.7-14.7c8.1,0,14.7,6.6,14.7,14.7v443.2h-14.7c-8.1,0-14.7-6.6-14.7-14.7V275.6z M621.2,774.1H178.8
	c-8.1,0-14.7-6.6-14.7-14.7v-14.7h471.7v14.7C635.9,767.5,629.3,774.1,621.2,774.1z M290.3,718.8h-29.4V275.6
	c0-8.1,6.6-14.7,14.7-14.7s14.7,6.6,14.7,14.7V718.8z M414.7,718.8h-29.4V275.6c0-8.1,6.6-14.7,14.7-14.7s14.7,6.6,14.7,14.7V718.8z
	 M539.1,718.8h-29.4V275.6c0-8.1,6.6-14.7,14.7-14.7s14.7,6.6,14.7,14.7V718.8z M663.5,704.1c0,8.1-6.6,14.7-14.7,14.7h-14.7V275.6
	c0-8.1,6.6-14.7,14.7-14.7s14.7,6.6,14.7,14.7V704.1z M663.5,237.7c-4.6-1.8-9.5-2.8-14.7-2.8c-22.4,0-40.6,18.2-40.6,40.6v443.2
	H565V275.6c0-22.4-18.2-40.6-40.6-40.6c-22.4,0-40.6,18.2-40.6,40.6v443.2h-43.2V275.6c0-22.4-18.2-40.6-40.6-40.6
	s-40.6,18.2-40.6,40.6v443.2h-43.2V275.6c0-22.4-18.2-40.6-40.6-40.6S235,253.2,235,275.6v443.2h-43.2V275.6
	c0-22.4-18.2-40.6-40.6-40.6c-5.2,0-10.1,1-14.7,2.8v-32.1h527V237.7z M691.1,179.7H108.9v-28.5c0-23.3,19-42.3,42.3-42.3h497.6
	c23.3,0,42.3,19,42.3,42.3V179.7z"/>
</svg>
